<svg width="40" height="40" viewBox="0 0 40 40" fill="none" xmlns="http://www.w3.org/2000/svg">
<path d="M15 29.9999C14.0833 29.9999 13.2986 29.6735 12.6458 29.0208C11.9931 28.368 11.6667 27.5833 11.6667 26.6666V6.66658C11.6667 5.74992 11.9931 4.9652 12.6458 4.31242C13.2986 3.65964 14.0833 3.33325 15 3.33325H30C30.9167 3.33325 31.7014 3.65964 32.3542 4.31242C33.0069 4.9652 33.3333 5.74992 33.3333 6.66658V26.6666C33.3333 27.5833 33.0069 28.368 32.3542 29.0208C31.7014 29.6735 30.9167 29.9999 30 29.9999H15ZM8.33333 36.6666C7.41667 36.6666 6.63194 36.3402 5.97917 35.6874C5.32639 35.0346 5 34.2499 5 33.3333V9.99992H8.33333V33.3333H26.6667V36.6666H8.33333Z" fill="#B2B2B2"/>
</svg>
