<svg width="20" height="21" viewBox="0 0 20 21" fill="none" xmlns="http://www.w3.org/2000/svg">
<path d="M10.0232 17.0833C8.19502 17.0833 6.6409 16.4433 5.36082 15.1632C4.08072 13.8831 3.44067 12.3287 3.44067 10.5C3.44067 8.75322 4.03126 7.25403 5.21244 6.00244C6.39363 4.75084 7.84088 4.06895 9.55422 3.95677C9.66079 3.95677 9.76544 3.96104 9.86819 3.96958C9.97094 3.97812 10.0779 3.99094 10.189 4.00804C9.79156 4.40547 9.47719 4.8614 9.2459 5.37581C9.0146 5.89024 8.89895 6.43164 8.89895 7C8.89895 8.29631 9.34571 9.39122 10.2392 10.2847C11.1328 11.1783 12.2277 11.625 13.524 11.625C14.087 11.625 14.6271 11.5094 15.1442 11.2781C15.6612 11.0468 16.1158 10.7324 16.5079 10.335C16.525 10.4461 16.5378 10.553 16.5464 10.6558C16.5549 10.7585 16.5592 10.8632 16.5592 10.9698C16.4524 12.6831 15.7729 14.1304 14.5207 15.3115C13.2686 16.4927 11.7694 17.0833 10.0232 17.0833Z" fill="#0E0E0E"/>
</svg>
