<svg width="28" height="28" viewBox="0 0 28 28" fill="none" xmlns="http://www.w3.org/2000/svg">
<path d="M4.66671 23.3334C4.02504 23.3334 3.47574 23.1049 3.01879 22.648C2.56185 22.1911 2.33337 21.6417 2.33337 21.0001V7.00008C2.33337 6.35841 2.56185 5.80911 3.01879 5.35216C3.47574 4.89522 4.02504 4.66675 4.66671 4.66675H23.3334C23.975 4.66675 24.5243 4.89522 24.9813 5.35216C25.4382 5.80911 25.6667 6.35841 25.6667 7.00008V21.0001C25.6667 21.6417 25.4382 22.1911 24.9813 22.648C24.5243 23.1049 23.975 23.3334 23.3334 23.3334H4.66671ZM14 15.1667L23.3334 9.33341V7.00008L14 12.8334L4.66671 7.00008V9.33341L14 15.1667Z" fill="url(#paint0_linear_58_63)"/>
<defs>
<linearGradient id="paint0_linear_58_63" x1="14" y1="4.66675" x2="14" y2="23.3334" gradientUnits="userSpaceOnUse">
<stop stop-color="#B6F829"/>
<stop offset="1" stop-color="#67DD0A"/>
</linearGradient>
</defs>
</svg>
