<svg width="20" height="20" viewBox="0 0 20 20" fill="none" xmlns="http://www.w3.org/2000/svg">
<path d="M4 16C3.5875 16 3.23438 15.8531 2.94063 15.5594C2.64687 15.2656 2.5 14.9125 2.5 14.5V5.5C2.5 5.0875 2.64687 4.73437 2.94063 4.44062C3.23438 4.14687 3.5875 4 4 4H16C16.4125 4 16.7656 4.14687 17.0594 4.44062C17.3531 4.73437 17.5 5.0875 17.5 5.5V14.5C17.5 14.9125 17.3531 15.2656 17.0594 15.5594C16.7656 15.8531 16.4125 16 16 16H4ZM10 10.75L16 7V5.5L10 9.25L4 5.5V7L10 10.75Z" fill="#DEDEDE"/>
</svg>
