<svg width="21" height="21" viewBox="0 0 21 21" fill="none" xmlns="http://www.w3.org/2000/svg">
<mask id="mask0_20_1443" style="mask-type:alpha" maskUnits="userSpaceOnUse" x="0" y="0" width="21" height="21">
<circle cx="10.5" cy="10.5" r="10" fill="#D9D9D9"/>
</mask>
<g mask="url(#mask0_20_1443)">
<path d="M-4.00012 0.499978H24.9999V20.8H-4.00012V0.499978Z" fill="#009B3A"/>
<path d="M-1.53516 10.65L10.4998 18.335L22.5348 10.65L10.4998 2.965L-1.53516 10.65Z" fill="#FEDF00"/>
<path d="M10.4999 15.725C13.3028 15.725 15.5749 13.4528 15.5749 10.65C15.5749 7.84716 13.3028 5.575 10.4999 5.575C7.69708 5.575 5.42493 7.84716 5.42493 10.65C5.42493 13.4528 7.69708 15.725 10.4999 15.725Z" fill="#002776"/>
<mask id="mask1_20_1443" style="mask-type:luminance" maskUnits="userSpaceOnUse" x="5" y="5" width="11" height="11">
<path d="M10.4999 15.725C13.3028 15.725 15.5749 13.4528 15.5749 10.65C15.5749 7.84716 13.3028 5.575 10.4999 5.575C7.69708 5.575 5.42493 7.84716 5.42493 10.65C5.42493 13.4528 7.69708 15.725 10.4999 15.725Z" fill="white"/>
</mask>
<g mask="url(#mask1_20_1443)">
<path d="M-4.7251 20.8C-4.7251 17.5312 -3.42657 14.3963 -1.11519 12.0849C1.1962 9.77353 4.33111 8.475 7.5999 8.475C10.8687 8.475 14.0036 9.77353 16.315 12.0849C18.6264 14.3963 19.9249 17.5312 19.9249 20.8H19.1999C19.1999 17.7235 17.9778 14.773 15.8023 12.5976C13.6269 10.4221 10.6764 9.2 7.5999 9.2C4.52339 9.2 1.57289 10.4221 -0.602536 12.5976C-2.77796 14.773 -4.0001 17.7235 -4.0001 20.8H-4.7251Z" fill="white"/>
</g>
<path fill-rule="evenodd" clip-rule="evenodd" d="M6.17151 9.16653C6.22877 9.1595 6.28057 9.12749 6.31553 9.07753C6.3505 9.02758 6.36575 8.96378 6.35794 8.90016C6.35013 8.83654 6.31989 8.77833 6.27388 8.73831C6.22787 8.6983 6.16986 8.67977 6.11261 8.6868C6.05535 8.69383 6.00355 8.72585 5.96858 8.7758C5.93362 8.82575 5.91837 8.88956 5.92618 8.95317C5.93399 9.01679 5.96423 9.07501 6.01024 9.11502C6.05624 9.15503 6.11426 9.17356 6.17151 9.16653ZM6.16057 9.07744C6.1942 9.07331 6.2245 9.05347 6.2448 9.02227C6.26511 8.99108 6.27375 8.95109 6.26885 8.9111C6.26394 8.87111 6.24587 8.8344 6.21862 8.80905C6.19137 8.78369 6.15717 8.77177 6.12355 8.77589C6.08992 8.78002 6.05962 8.79987 6.03932 8.83106C6.01901 8.86226 6.01036 8.90225 6.01527 8.94223C6.02018 8.98222 6.03825 9.01893 6.0655 9.04429C6.09275 9.06964 6.12695 9.08157 6.16057 9.07744Z" fill="#009B3A"/>
<path fill-rule="evenodd" clip-rule="evenodd" d="M6.5763 9.12272L6.66358 9.11422L6.64698 8.93916L6.83497 8.92085C6.87414 8.91704 6.91023 8.89777 6.9353 8.8673C6.96037 8.83682 6.97236 8.79763 6.96863 8.75834C6.96491 8.71906 6.94578 8.6829 6.91544 8.65782C6.88511 8.63274 6.84606 8.62079 6.80689 8.6246L6.53833 8.65076L6.5763 9.12272ZM6.63868 8.85163L6.81996 8.83398C6.83598 8.83242 6.85075 8.82454 6.861 8.81207C6.87126 8.7996 6.87616 8.78357 6.87464 8.7675C6.87312 8.75143 6.86529 8.73663 6.85288 8.72637C6.84047 8.71611 6.8245 8.71123 6.80847 8.71279L6.62719 8.73044L6.63868 8.85163Z" fill="#009B3A"/>
<path d="M6.97507 9.08849C6.96867 9.0214 6.95461 8.87382 6.85351 8.88358L6.72546 8.89594C6.87373 8.88163 6.8878 9.02921 6.89419 9.09629" fill="#009B3A"/>
<path fill-rule="evenodd" clip-rule="evenodd" d="M7.17787 9.08475L7.40569 9.08077C7.43289 9.0803 7.45973 9.07447 7.48467 9.06362C7.50962 9.05278 7.53219 9.03712 7.55108 9.01755C7.56998 8.99799 7.58484 8.97489 7.59481 8.94958C7.60478 8.92427 7.60966 8.89724 7.60919 8.87004L7.60798 8.80101C7.60751 8.77381 7.60168 8.74697 7.59083 8.72202C7.57999 8.69708 7.56433 8.67451 7.54476 8.65562C7.5252 8.63672 7.5021 8.62186 7.47679 8.61189C7.45148 8.60192 7.42445 8.59704 7.39726 8.59751L7.16943 8.60149L7.17787 9.08475ZM7.26605 8.99343L7.39722 8.99114C7.43201 8.99054 7.46513 8.97613 7.4893 8.95111C7.51347 8.92608 7.52671 8.89247 7.5261 8.85768L7.52538 8.81626C7.52477 8.78147 7.51037 8.74835 7.48534 8.72418C7.46031 8.70001 7.42671 8.68677 7.39192 8.68738L7.26075 8.68967L7.26605 8.99343Z" fill="#009B3A"/>
<path d="M7.7916 9.07872L8.22634 9.0939L8.22947 9.00419L7.87754 8.9919L7.88188 8.86769L8.1579 8.87733L8.16079 8.79452L7.88477 8.78488L7.88815 8.68828L8.21937 8.69984L8.22251 8.61013L7.80847 8.59568L7.7916 9.07872Z" fill="#009B3A"/>
<path d="M8.40477 9.10481L8.48732 9.11203L8.5162 8.78187L8.58361 9.12046L8.65928 9.12708L8.78446 8.80534L8.75558 9.1355L8.83812 9.14272L8.88024 8.66123L8.75987 8.6507L8.63469 8.97244L8.56727 8.63385L8.4469 8.62332L8.40477 9.10481Z" fill="#009B3A"/>
<path d="M9.40619 9.21777L9.76346 9.27916L9.77749 9.1975L9.50188 9.15014L9.52059 9.04126L9.74516 9.07985L9.75919 8.99819L9.53462 8.9596L9.54749 8.88474L9.81458 8.93064L9.82862 8.84898L9.47986 8.78905L9.40619 9.21777Z" fill="#009B3A"/>
<path fill-rule="evenodd" clip-rule="evenodd" d="M10.3241 9.39805L10.411 9.42052L10.4559 9.24671L10.6431 9.29512C10.6821 9.30521 10.7235 9.29939 10.7582 9.27894C10.7929 9.25849 10.8181 9.22509 10.8282 9.18609C10.8383 9.14708 10.8324 9.10567 10.812 9.07096C10.7916 9.03624 10.7582 9.01108 10.7191 9.00099L10.4518 8.93184L10.3241 9.39805ZM10.4784 9.15981L10.6589 9.20649C10.6748 9.21062 10.6918 9.20823 10.706 9.19987C10.7202 9.19151 10.7305 9.17784 10.7346 9.16189C10.7387 9.14593 10.7363 9.12899 10.728 9.11479C10.7196 9.10059 10.7059 9.09029 10.69 9.08616L10.5095 9.03948L10.4784 9.15981Z" fill="#009B3A"/>
<path fill-rule="evenodd" clip-rule="evenodd" d="M10.917 9.54139L10.9998 9.57145L11.0588 9.40575L11.2372 9.47048C11.2743 9.48397 11.3152 9.48214 11.3509 9.46538C11.3865 9.44863 11.414 9.41832 11.4272 9.38114C11.4405 9.34395 11.4384 9.30293 11.4215 9.2671C11.4046 9.23127 11.3742 9.20356 11.3371 9.19007L11.0823 9.09759L10.917 9.54139ZM11.0883 9.3229L11.2603 9.38532C11.2755 9.39084 11.2922 9.39009 11.3068 9.38323C11.3214 9.37638 11.3326 9.36398 11.3381 9.34877C11.3435 9.33356 11.3426 9.31678 11.3357 9.30212C11.3288 9.28746 11.3164 9.27612 11.3012 9.27061L11.1292 9.20818L11.0883 9.3229Z" fill="#009B3A"/>
<path d="M11.3024 9.67978C11.3251 9.6163 11.3752 9.47663 11.2793 9.44215L11.1577 9.39846C11.2984 9.44904 11.2484 9.5887 11.2256 9.65219" fill="#009B3A"/>
<path fill-rule="evenodd" clip-rule="evenodd" d="M11.7046 9.82142C11.7587 9.84162 11.8194 9.83715 11.8735 9.80898C11.9275 9.78082 11.9705 9.73126 11.993 9.67123C12.0154 9.61119 12.0155 9.54559 11.9932 9.48886C11.9708 9.43212 11.9279 9.3889 11.8739 9.3687C11.8199 9.34849 11.7591 9.35297 11.705 9.38114C11.651 9.4093 11.608 9.45885 11.5855 9.51889C11.5631 9.57892 11.563 9.64453 11.5854 9.70126C11.6077 9.758 11.6506 9.80122 11.7046 9.82142ZM11.7361 9.73734C11.7678 9.74921 11.8038 9.7456 11.8362 9.7273C11.8687 9.70901 11.8948 9.67753 11.9089 9.63979C11.923 9.60206 11.9239 9.56115 11.9115 9.52608C11.899 9.49101 11.8742 9.46464 11.8425 9.45277C11.8107 9.44091 11.7747 9.44452 11.7423 9.46282C11.7099 9.48111 11.6837 9.51259 11.6696 9.55032C11.6555 9.58806 11.6546 9.62896 11.667 9.66404C11.6795 9.69911 11.7043 9.72548 11.7361 9.73734Z" fill="#009B3A"/>
<mask id="mask2_20_1443" style="mask-type:luminance" maskUnits="userSpaceOnUse" x="12" y="9" width="1" height="2">
<path d="M12.0738 9.95216L12.2786 9.52122L12.6655 9.70699L12.4607 10.1379L12.0738 9.95216ZM12.4047 9.7557L12.3696 9.82957L12.5631 9.92245L12.5982 9.84858L12.4047 9.7557Z" fill="white"/>
</mask>
<g mask="url(#mask2_20_1443)">
<path fill-rule="evenodd" clip-rule="evenodd" d="M12.2679 10.0456C12.3193 10.0701 12.3793 10.0709 12.4348 10.0477C12.4903 10.0246 12.5366 9.97941 12.5637 9.92215C12.5908 9.8649 12.5963 9.80025 12.5791 9.74242C12.5619 9.68459 12.5234 9.63833 12.472 9.6138C12.4206 9.58928 12.3605 9.5885 12.3051 9.61165C12.2496 9.63479 12.2032 9.67996 12.1762 9.73721C12.1491 9.79447 12.1435 9.85912 12.1608 9.91695C12.178 9.97477 12.2165 10.021 12.2679 10.0456ZM12.3058 9.96538C12.336 9.97978 12.3717 9.9793 12.4051 9.96404C12.4384 9.94877 12.4667 9.91998 12.4837 9.88399C12.5008 9.848 12.5051 9.80777 12.4958 9.77213C12.4864 9.7365 12.4643 9.70839 12.4341 9.69399C12.4039 9.67958 12.3682 9.68007 12.3348 9.69533C12.3014 9.71059 12.2731 9.73939 12.2561 9.77537C12.2391 9.81136 12.2348 9.8516 12.2441 9.88723C12.2534 9.92286 12.2756 9.95097 12.3058 9.96538Z" fill="#009B3A"/>
</g>
<path d="M12.403 9.84355L12.5696 9.91836L12.541 9.97983L12.3743 9.90501L12.403 9.84355Z" fill="#009B3A"/>
<path d="M12.5082 9.88898L12.5696 9.91796L12.4713 10.1381L12.4099 10.1091L12.5082 9.88898Z" fill="#009B3A"/>
<path fill-rule="evenodd" clip-rule="evenodd" d="M12.635 10.2074L12.7141 10.2487L12.7964 10.0903L12.9668 10.1793C13.0023 10.1979 13.0437 10.2015 13.0819 10.1895C13.12 10.1775 13.1519 10.1508 13.1703 10.1152C13.1888 10.0797 13.1924 10.0382 13.1803 9.99999C13.1683 9.96175 13.1415 9.92984 13.106 9.91129L12.8625 9.78415L12.635 10.2074ZM12.8375 10.0111L13.0018 10.0969C13.0164 10.1045 13.0333 10.106 13.0489 10.1011C13.0645 10.0962 13.0775 10.0853 13.0851 10.0707C13.0927 10.0562 13.0941 10.0392 13.0892 10.0236C13.0843 10.0079 13.0733 9.99489 13.0588 9.9873L12.8944 9.90148L12.8375 10.0111Z" fill="#009B3A"/>
<path d="M13 10.3969C13.0317 10.3361 13.1014 10.2023 13.0099 10.1547L12.894 10.0944C13.0282 10.1642 12.9585 10.298 12.9268 10.3588" fill="#009B3A"/>
<path d="M13.1823 10.4916L13.5609 10.7058L13.6051 10.6277L13.2986 10.4543L13.3598 10.3461L13.6002 10.4821L13.641 10.41L13.4006 10.274L13.4482 10.1899L13.7367 10.3531L13.7809 10.2749L13.4203 10.0709L13.1823 10.4916Z" fill="#009B3A"/>
<path d="M13.8874 10.7282C13.8614 10.769 13.8877 10.8144 13.946 10.8515C14.0042 10.8886 14.0439 10.8872 14.0606 10.8611C14.1135 10.7781 13.8078 10.6571 13.902 10.5124C13.9833 10.3881 14.1222 10.4849 14.1746 10.5182C14.227 10.5516 14.3112 10.638 14.2458 10.7375L14.1569 10.6809C14.1848 10.6373 14.1542 10.5953 14.1076 10.5656C14.0625 10.5369 14.0258 10.5237 13.9989 10.5659C13.9539 10.6334 14.2534 10.7608 14.1616 10.905C14.0939 11.0112 13.9761 10.9648 13.8975 10.9147C13.8305 10.8721 13.7304 10.7715 13.7957 10.6698L13.8874 10.7282Z" fill="#009B3A"/>
<path d="M14.4059 11.0711C14.3779 11.1104 14.4018 11.1572 14.458 11.1973C14.5142 11.2374 14.5539 11.2381 14.572 11.2128C14.6291 11.1327 14.3302 10.9959 14.4319 10.8563C14.5195 10.7365 14.6532 10.8403 14.7038 10.8764C14.7544 10.9125 14.8339 11.0032 14.7633 11.0991L14.6776 11.038C14.7077 10.9958 14.6794 10.9523 14.6344 10.9202C14.5908 10.8891 14.5549 10.8741 14.5258 10.9149C14.4773 10.9799 14.7698 11.1228 14.6705 11.2619C14.5974 11.3645 14.4821 11.312 14.4063 11.2579C14.3416 11.2118 14.2469 11.1061 14.3174 11.0079L14.4059 11.0711Z" fill="#009B3A"/>
<path fill-rule="evenodd" clip-rule="evenodd" d="M14.8963 11.6272C14.9415 11.6631 15.0006 11.6776 15.0607 11.6675C15.1209 11.6574 15.1771 11.6236 15.217 11.5734C15.2569 11.5233 15.2772 11.4609 15.2735 11.4001C15.2698 11.3392 15.2423 11.2848 15.1972 11.2489C15.1521 11.213 15.0929 11.1985 15.0328 11.2086C14.9726 11.2187 14.9164 11.2525 14.8765 11.3027C14.8366 11.3528 14.8163 11.4152 14.82 11.476C14.8237 11.5369 14.8512 11.5913 14.8963 11.6272ZM14.9522 11.5569C14.9787 11.578 15.0141 11.5857 15.0506 11.5783C15.0871 11.571 15.1216 11.5491 15.1467 11.5176C15.1718 11.486 15.1853 11.4474 15.1843 11.4102C15.1833 11.373 15.1678 11.3403 15.1413 11.3192C15.1148 11.2981 15.0794 11.2904 15.0429 11.2978C15.0064 11.3051 14.9719 11.327 14.9468 11.3585C14.9217 11.3901 14.9082 11.4287 14.9092 11.4659C14.9102 11.5031 14.9257 11.5358 14.9522 11.5569Z" fill="#009B3A"/>
<path d="M6.35693 9.52107L6.28972 9.72793L6.39315 9.76153" fill="white"/>
<path d="M6.35693 9.52107L6.42414 9.72793L6.32072 9.76153" fill="white"/>
<path d="M6.56165 9.67136L6.34637 9.67681L6.3486 9.78011" fill="white"/>
<path d="M6.56384 9.66578L6.39281 9.7992L6.32396 9.71681" fill="white"/>
<path d="M6.15015 9.66578L6.32118 9.7992L6.39003 9.71681" fill="white"/>
<path d="M6.15234 9.67136L6.36762 9.67681L6.36539 9.78011" fill="white"/>
<path d="M6.48486 9.91494L6.41817 9.70768L6.31422 9.74088" fill="white"/>
<path d="M6.4856 9.91453L6.30888 9.78751L6.37204 9.69871" fill="white"/>
<path d="M6.22852 9.91453L6.40523 9.78751L6.34207 9.69871" fill="white"/>
<path d="M6.22925 9.91494L6.29594 9.70768L6.39989 9.74088" fill="white"/>
<path d="M6.80579 11.6546L6.73857 11.8615L6.842 11.8951" fill="white"/>
<path d="M6.80579 11.6546L6.873 11.8615L6.76957 11.8951" fill="white"/>
<path d="M7.0105 11.8049L6.79522 11.8104L6.79745 11.9137" fill="white"/>
<path d="M7.0127 11.7993L6.84166 11.9328L6.77281 11.8504" fill="white"/>
<path d="M6.599 11.7993L6.77003 11.9328L6.83888 11.8504" fill="white"/>
<path d="M6.6012 11.8049L6.81647 11.8104L6.81425 11.9137" fill="white"/>
<path d="M6.93372 12.0485L6.86702 11.8412L6.76308 11.8744" fill="white"/>
<path d="M6.93445 12.0481L6.75773 11.9211L6.82089 11.8323" fill="white"/>
<path d="M6.67737 12.0481L6.85409 11.9211L6.79092 11.8323" fill="white"/>
<path d="M6.6781 12.0485L6.74479 11.8413L6.84874 11.8745" fill="white"/>
<path d="M6.18445 12.1466L6.12844 12.319L6.21463 12.347" fill="white"/>
<path d="M6.18445 12.1466L6.24046 12.319L6.15427 12.347" fill="white"/>
<path d="M6.35498 12.2718L6.17558 12.2764L6.17744 12.3625" fill="white"/>
<path d="M6.35681 12.2672L6.21428 12.3784L6.15691 12.3097" fill="white"/>
<path d="M6.01196 12.2672L6.15449 12.3784L6.21187 12.3097" fill="white"/>
<path d="M6.01392 12.2718L6.19331 12.2764L6.19146 12.3625" fill="white"/>
<path d="M6.29089 12.4748L6.23532 12.3021L6.14869 12.3298" fill="white"/>
<path d="M6.29163 12.4745L6.14436 12.3686L6.197 12.2946" fill="white"/>
<path d="M6.07727 12.4745L6.22454 12.3686L6.1719 12.2946" fill="white"/>
<path d="M6.07788 12.4748L6.13346 12.3021L6.22008 12.3298" fill="white"/>
<path d="M7.30286 11.4579L7.27085 11.5564L7.3201 11.5724" fill="white"/>
<path d="M7.30286 11.4579L7.33486 11.5564L7.28561 11.5724" fill="white"/>
<path d="M7.40039 11.5294L7.29788 11.532L7.29894 11.5812" fill="white"/>
<path d="M7.40149 11.5268L7.32005 11.5903L7.28726 11.5511" fill="white"/>
<path d="M7.20447 11.5268L7.28591 11.5903L7.3187 11.5511" fill="white"/>
<path d="M7.20557 11.5294L7.30808 11.532L7.30702 11.5812" fill="white"/>
<path d="M7.36377 11.6454L7.33201 11.5467L7.28251 11.5625" fill="white"/>
<path d="M7.36414 11.6452L7.27998 11.5847L7.31006 11.5424" fill="white"/>
<path d="M7.2417 11.6452L7.32585 11.5847L7.29577 11.5424" fill="white"/>
<path d="M7.24207 11.6454L7.27382 11.5467L7.32332 11.5625" fill="white"/>
<path d="M7.8623 12.1949L7.8063 12.3673L7.89248 12.3953" fill="white"/>
<path d="M7.8623 12.1949L7.91831 12.3673L7.83212 12.3953" fill="white"/>
<path d="M8.03284 12.3202L7.85344 12.3247L7.8553 12.4108" fill="white"/>
<path d="M8.03467 12.3155L7.89214 12.4267L7.83477 12.3581" fill="white"/>
<path d="M7.68982 12.3155L7.83235 12.4267L7.88972 12.3581" fill="white"/>
<path d="M7.69177 12.3202L7.87117 12.3247L7.86931 12.4108" fill="white"/>
<path d="M7.96875 12.5232L7.91317 12.3504L7.82655 12.3781" fill="white"/>
<path d="M7.96948 12.5228L7.82222 12.417L7.87485 12.343" fill="white"/>
<path d="M7.75513 12.5228L7.90239 12.417L7.84975 12.343" fill="white"/>
<path d="M7.75574 12.5232L7.81131 12.3504L7.89794 12.3781" fill="white"/>
<path d="M7.71045 12.7352L7.66564 12.8731L7.73459 12.8955" fill="white"/>
<path d="M7.71045 12.7352L7.75526 12.8731L7.68631 12.8955" fill="white"/>
<path d="M7.8468 12.8354L7.70329 12.8391L7.70477 12.9079" fill="white"/>
<path d="M7.84827 12.8317L7.73424 12.9207L7.68834 12.8657" fill="white"/>
<path d="M7.57251 12.8317L7.68653 12.9207L7.73243 12.8657" fill="white"/>
<path d="M7.57397 12.8354L7.71749 12.8391L7.71601 12.9079" fill="white"/>
<path d="M7.79553 12.9978L7.75107 12.8596L7.68177 12.8818" fill="white"/>
<path d="M7.79614 12.9975L7.67833 12.9129L7.72044 12.8537" fill="white"/>
<path d="M7.62463 12.9975L7.74245 12.9129L7.70034 12.8537" fill="white"/>
<path d="M7.62524 12.9978L7.66971 12.8596L7.739 12.8818" fill="white"/>
<path d="M12.0741 8.85822L12.0069 9.06507L12.1103 9.09868" fill="white"/>
<path d="M12.0741 8.85822L12.1413 9.06507L12.0379 9.09868" fill="white"/>
<path d="M12.2788 9.0085L12.0635 9.01395L12.0658 9.11725" fill="white"/>
<path d="M12.281 9.00292L12.11 9.13635L12.0411 9.05395" fill="white"/>
<path d="M11.8673 9.00292L12.0383 9.13635L12.1072 9.05395" fill="white"/>
<path d="M11.8695 9.0085L12.0848 9.01395L12.0826 9.11725" fill="white"/>
<path d="M12.202 9.25208L12.1353 9.04482L12.0314 9.07802" fill="white"/>
<path d="M12.2028 9.25168L12.026 9.12465L12.0892 9.03585" fill="white"/>
<path d="M11.9457 9.25168L12.1224 9.12465L12.0592 9.03585" fill="white"/>
<path d="M11.9464 9.25208L12.0131 9.04482L12.117 9.07802" fill="white"/>
<path d="M14.0558 12.2139L13.9886 12.4208L14.092 12.4544" fill="white"/>
<path d="M14.0558 12.2139L14.123 12.4208L14.0196 12.4544" fill="white"/>
<path d="M14.2605 12.3642L14.0452 12.3697L14.0474 12.473" fill="white"/>
<path d="M14.2627 12.3586L14.0917 12.4921L14.0228 12.4097" fill="white"/>
<path d="M13.849 12.3586L14.02 12.4921L14.0889 12.4097" fill="white"/>
<path d="M13.8512 12.3642L14.0665 12.3697L14.0642 12.473" fill="white"/>
<path d="M14.1837 12.6078L14.117 12.4005L14.0131 12.4337" fill="white"/>
<path d="M14.1844 12.6074L14.0077 12.4804L14.0709 12.3916" fill="white"/>
<path d="M13.9274 12.6074L14.1041 12.4804L14.0409 12.3916" fill="white"/>
<path d="M13.9281 12.6078L13.9948 12.4005L14.0987 12.4337" fill="white"/>
<path d="M14.7601 12.3348L14.7153 12.4727L14.7843 12.4951" fill="white"/>
<path d="M14.7601 12.3348L14.8049 12.4727L14.736 12.4951" fill="white"/>
<path d="M14.8965 12.435L14.753 12.4386L14.7545 12.5075" fill="white"/>
<path d="M14.8979 12.4312L14.7839 12.5202L14.738 12.4653" fill="white"/>
<path d="M14.6222 12.4312L14.7362 12.5202L14.7821 12.4653" fill="white"/>
<path d="M14.6237 12.435L14.7672 12.4386L14.7657 12.5075" fill="white"/>
<path d="M14.8452 12.5973L14.8008 12.4592L14.7315 12.4813" fill="white"/>
<path d="M14.8458 12.5971L14.728 12.5124L14.7701 12.4532" fill="white"/>
<path d="M14.6743 12.5971L14.7921 12.5124L14.75 12.4532" fill="white"/>
<path d="M14.6749 12.5973L14.7194 12.4592L14.7887 12.4813" fill="white"/>
<path d="M14.2631 12.699L14.2071 12.8714L14.2932 12.8994" fill="white"/>
<path d="M14.2631 12.699L14.3191 12.8714L14.2329 12.8994" fill="white"/>
<path d="M14.4336 12.8242L14.2542 12.8288L14.2561 12.9149" fill="white"/>
<path d="M14.4354 12.8196L14.2929 12.9308L14.2355 12.8621" fill="white"/>
<path d="M14.0906 12.8196L14.2331 12.9308L14.2905 12.8621" fill="white"/>
<path d="M14.0925 12.8242L14.2719 12.8288L14.2701 12.9149" fill="white"/>
<path d="M14.3695 13.0272L14.3139 12.8545L14.2273 12.8822" fill="white"/>
<path d="M14.3702 13.0269L14.223 12.921L14.2756 12.847" fill="white"/>
<path d="M14.1559 13.0269L14.3031 12.921L14.2505 12.847" fill="white"/>
<path d="M14.1565 13.0272L14.2121 12.8545L14.2987 12.8822" fill="white"/>
<path d="M13.0409 13.7623L12.9849 13.9347L13.0711 13.9627" fill="white"/>
<path d="M13.0409 13.7623L13.0969 13.9347L13.0107 13.9627" fill="white"/>
<path d="M13.2114 13.8876L13.032 13.8921L13.0339 13.9782" fill="white"/>
<path d="M13.2133 13.8829L13.0707 13.9941L13.0134 13.9254" fill="white"/>
<path d="M12.8684 13.8829L13.0109 13.9941L13.0683 13.9254" fill="white"/>
<path d="M12.8704 13.8876L13.0498 13.8921L13.0479 13.9782" fill="white"/>
<path d="M13.1473 14.0905L13.0918 13.9178L13.0051 13.9455" fill="white"/>
<path d="M13.1481 14.0902L13.0008 13.9844L13.0534 13.9104" fill="white"/>
<path d="M12.9337 14.0902L13.081 13.9844L13.0283 13.9104" fill="white"/>
<path d="M12.9343 14.0905L12.9899 13.9178L13.0765 13.9455" fill="white"/>
<path d="M13.0339 14.3095L12.9891 14.4474L13.0581 14.4698" fill="white"/>
<path d="M13.0339 14.3095L13.0787 14.4474L13.0098 14.4698" fill="white"/>
<path d="M13.1703 14.4097L13.0268 14.4133L13.0283 14.4822" fill="white"/>
<path d="M13.1718 14.406L13.0577 14.4949L13.0118 14.44" fill="white"/>
<path d="M12.896 14.406L13.01 14.4949L13.0559 14.44" fill="white"/>
<path d="M12.8975 14.4097L13.041 14.4133L13.0395 14.4822" fill="white"/>
<path d="M13.119 14.5721L13.0746 14.4339L13.0053 14.4561" fill="white"/>
<path d="M13.1196 14.5718L13.0018 14.4871L13.0439 14.428" fill="white"/>
<path d="M12.9481 14.5718L13.0659 14.4871L13.0238 14.4279" fill="white"/>
<path d="M12.9487 14.5721L12.9932 14.4339L13.0625 14.4561" fill="white"/>
<path d="M13.5449 13.3981L13.5001 13.536L13.5691 13.5584" fill="white"/>
<path d="M13.5449 13.3981L13.5897 13.536L13.5208 13.5584" fill="white"/>
<path d="M13.6813 13.4983L13.5378 13.5019L13.5392 13.5708" fill="white"/>
<path d="M13.6827 13.4946L13.5687 13.5835L13.5228 13.5286" fill="white"/>
<path d="M13.407 13.4946L13.521 13.5835L13.5669 13.5286" fill="white"/>
<path d="M13.4084 13.4983L13.552 13.5019L13.5505 13.5708" fill="white"/>
<path d="M13.63 13.6607L13.5855 13.5225L13.5162 13.5446" fill="white"/>
<path d="M13.6306 13.6604L13.5128 13.5757L13.5549 13.5165" fill="white"/>
<path d="M13.4591 13.6604L13.5769 13.5757L13.5348 13.5165" fill="white"/>
<path d="M13.4597 13.6607L13.5042 13.5225L13.5735 13.5446" fill="white"/>
<path d="M13.9523 13.1064L13.8963 13.2787L13.9825 13.3068" fill="white"/>
<path d="M13.9523 13.1064L14.0083 13.2787L13.9221 13.3068" fill="white"/>
<path d="M14.1228 13.2316L13.9434 13.2362L13.9453 13.3222" fill="white"/>
<path d="M14.1246 13.227L13.9821 13.3381L13.9247 13.2695" fill="white"/>
<path d="M13.7798 13.227L13.9223 13.3381L13.9797 13.2695" fill="white"/>
<path d="M13.7817 13.2316L13.9611 13.2362L13.9593 13.3222" fill="white"/>
<path d="M14.0587 13.4346L14.0031 13.2619L13.9165 13.2895" fill="white"/>
<path d="M14.0594 13.4343L13.9122 13.3284L13.9648 13.2544" fill="white"/>
<path d="M13.8451 13.4343L13.9924 13.3284L13.9397 13.2544" fill="white"/>
<path d="M13.8457 13.4346L13.9013 13.2619L13.9879 13.2895" fill="white"/>
<path d="M13.0201 13.3014L12.9753 13.4393L13.0443 13.4617" fill="white"/>
<path d="M13.0201 13.3014L13.0649 13.4393L12.996 13.4617" fill="white"/>
<path d="M13.1565 13.4016L13.013 13.4053L13.0145 13.4741" fill="white"/>
<path d="M13.158 13.3979L13.0439 13.4869L12.998 13.4319" fill="white"/>
<path d="M12.8822 13.3979L12.9962 13.4869L13.0421 13.4319" fill="white"/>
<path d="M12.8837 13.4016L13.0272 13.4053L13.0257 13.4741" fill="white"/>
<path d="M13.1052 13.564L13.0608 13.4258L12.9915 13.448" fill="white"/>
<path d="M13.1058 13.5637L12.988 13.4791L13.0301 13.4199" fill="white"/>
<path d="M12.9343 13.5637L13.0521 13.4791L13.01 13.4199" fill="white"/>
<path d="M12.9349 13.564L12.9794 13.4258L13.0487 13.448" fill="white"/>
<path d="M8.56665 10.6759L8.51064 10.8483L8.59683 10.8763" fill="white"/>
<path d="M8.56665 10.6759L8.62266 10.8483L8.53647 10.8763" fill="white"/>
<path d="M8.73718 10.8011L8.55779 10.8057L8.55964 10.8918" fill="white"/>
<path d="M8.73901 10.7965L8.59649 10.9077L8.53911 10.839" fill="white"/>
<path d="M8.39417 10.7965L8.53669 10.9077L8.59407 10.839" fill="white"/>
<path d="M8.39612 10.8011L8.57551 10.8057L8.57366 10.8918" fill="white"/>
<path d="M8.6731 11.0041L8.61752 10.8314L8.5309 10.8591" fill="white"/>
<path d="M8.67383 11.0038L8.52656 10.8979L8.5792 10.8239" fill="white"/>
<path d="M8.45947 11.0038L8.60674 10.8979L8.5541 10.8239" fill="white"/>
<path d="M8.46008 11.0041L8.51566 10.8314L8.60228 10.8591" fill="white"/>
<path d="M11.8809 10.2495L11.8361 10.3874L11.905 10.4098" fill="white"/>
<path d="M11.8809 10.2495L11.9257 10.3874L11.8567 10.4098" fill="white"/>
<path d="M12.0172 10.3497L11.8737 10.3534L11.8752 10.4222" fill="white"/>
<path d="M12.0187 10.346L11.9047 10.4349L11.8588 10.38" fill="white"/>
<path d="M11.7429 10.346L11.8569 10.4349L11.9028 10.38" fill="white"/>
<path d="M11.7444 10.3497L11.8879 10.3533L11.8864 10.4222" fill="white"/>
<path d="M11.9659 10.5121L11.9215 10.3739L11.8522 10.3961" fill="white"/>
<path d="M11.9666 10.5118L11.8487 10.4271L11.8909 10.368" fill="white"/>
<path d="M11.795 10.5118L11.9129 10.4271L11.8707 10.3679" fill="white"/>
<path d="M11.7957 10.5121L11.8401 10.3739L11.9094 10.3961" fill="white"/>
<path d="M10.4998 12.7111L10.4325 12.9179L10.536 12.9515" fill="white"/>
<path d="M10.4998 12.7111L10.567 12.9179L10.4635 12.9515" fill="white"/>
<path d="M10.7045 12.8614L10.4892 12.8668L10.4914 12.9701" fill="white"/>
<path d="M10.7067 12.8558L10.5356 12.9892L10.4668 12.9068" fill="white"/>
<path d="M10.293 12.8558L10.464 12.9892L10.5329 12.9068" fill="white"/>
<path d="M10.2952 12.8614L10.5104 12.8668L10.5082 12.9701" fill="white"/>
<path d="M10.6277 13.1049L10.561 12.8977L10.457 12.9309" fill="white"/>
<path d="M10.6284 13.1045L10.4517 12.9775L10.5149 12.8887" fill="white"/>
<path d="M10.3713 13.1045L10.5481 12.9775L10.4849 12.8887" fill="white"/>
<path d="M10.3721 13.1049L10.4388 12.8977L10.5427 12.9309" fill="white"/>
<path d="M11.0868 11.7392L11.0308 11.9116L11.117 11.9396" fill="white"/>
<path d="M11.0868 11.7392L11.1428 11.9116L11.0566 11.9396" fill="white"/>
<path d="M11.2573 11.8645L11.0779 11.869L11.0798 11.9551" fill="white"/>
<path d="M11.2592 11.8598L11.1166 11.971L11.0593 11.9023" fill="white"/>
<path d="M10.9143 11.8598L11.0568 11.971L11.1142 11.9023" fill="white"/>
<path d="M10.9163 11.8645L11.0957 11.869L11.0938 11.9551" fill="white"/>
<path d="M11.1932 12.0674L11.1377 11.8947L11.051 11.9224" fill="white"/>
<path d="M11.194 12.0671L11.0467 11.9613L11.0993 11.8873" fill="white"/>
<path d="M10.9796 12.0671L11.1269 11.9613L11.0742 11.8873" fill="white"/>
<path d="M10.9802 12.0674L11.0358 11.8947L11.1224 11.9224" fill="white"/>
<path d="M10.4999 11.2835L10.4439 11.4559L10.5301 11.4839" fill="white"/>
<path d="M10.4999 11.2835L10.5559 11.4559L10.4697 11.4839" fill="white"/>
<path d="M10.6704 11.4088L10.491 11.4133L10.4929 11.4994" fill="white"/>
<path d="M10.6722 11.4041L10.5297 11.5153L10.4723 11.4466" fill="white"/>
<path d="M10.3274 11.4041L10.4699 11.5153L10.5273 11.4466" fill="white"/>
<path d="M10.3293 11.4088L10.5087 11.4133L10.5069 11.4994" fill="white"/>
<path d="M10.6063 11.6117L10.5507 11.439L10.4641 11.4667" fill="white"/>
<path d="M10.6071 11.6114L10.4598 11.5055L10.5124 11.4315" fill="white"/>
<path d="M10.3927 11.6114L10.54 11.5055L10.4873 11.4315" fill="white"/>
<path d="M10.3933 11.6117L10.4489 11.439L10.5355 11.4667" fill="white"/>
<path d="M9.98901 11.7755L9.94421 11.9134L10.0132 11.9358" fill="white"/>
<path d="M9.98901 11.7755L10.0338 11.9134L9.96487 11.9358" fill="white"/>
<path d="M10.1254 11.8757L9.98185 11.8793L9.98333 11.9482" fill="white"/>
<path d="M10.1268 11.8719L10.0128 11.9609L9.96691 11.906" fill="white"/>
<path d="M9.85107 11.8719L9.9651 11.9609L10.011 11.906" fill="white"/>
<path d="M9.85254 11.8757L9.99606 11.8793L9.99457 11.9482" fill="white"/>
<path d="M10.0741 12.0381L10.0296 11.8999L9.96034 11.922" fill="white"/>
<path d="M10.0747 12.0378L9.95689 11.9531L9.999 11.8939" fill="white"/>
<path d="M9.9032 12.0378L10.021 11.9531L9.9789 11.8939" fill="white"/>
<path d="M9.90381 12.0381L9.94827 11.8999L10.0176 11.922" fill="white"/>
<path d="M10.2443 12.169L10.2123 12.2676L10.2615 12.2836" fill="white"/>
<path d="M10.2443 12.169L10.2763 12.2676L10.227 12.2836" fill="white"/>
<path d="M10.3418 12.2406L10.2393 12.2432L10.2403 12.2924" fill="white"/>
<path d="M10.3429 12.238L10.2615 12.3015L10.2287 12.2623" fill="white"/>
<path d="M10.1459 12.238L10.2273 12.3015L10.2601 12.2623" fill="white"/>
<path d="M10.147 12.2406L10.2495 12.2432L10.2484 12.2924" fill="white"/>
<path d="M10.3052 12.3566L10.2734 12.2579L10.2239 12.2737" fill="white"/>
<path d="M10.3055 12.3564L10.2214 12.2959L10.2515 12.2536" fill="white"/>
<path d="M10.1831 12.3564L10.2673 12.2959L10.2372 12.2536" fill="white"/>
<path d="M10.1835 12.3566L10.2152 12.2579L10.2647 12.2737" fill="white"/>
<path d="M12.0189 13.8866L11.9629 14.059L12.0491 14.087" fill="white"/>
<path d="M12.0189 13.8866L12.0749 14.059L11.9887 14.087" fill="white"/>
<path d="M12.1895 14.0118L12.0101 14.0164L12.0119 14.1025" fill="white"/>
<path d="M12.1913 14.0072L12.0488 14.1184L11.9914 14.0497" fill="white"/>
<path d="M11.8464 14.0072L11.989 14.1184L12.0463 14.0497" fill="white"/>
<path d="M11.8484 14.0118L12.0278 14.0164L12.0259 14.1025" fill="white"/>
<path d="M12.1254 14.2148L12.0698 14.0421L11.9832 14.0698" fill="white"/>
<path d="M12.1261 14.2145L11.9788 14.1086L12.0315 14.0346" fill="white"/>
<path d="M11.9117 14.2145L12.059 14.1086L12.0064 14.0346" fill="white"/>
<path d="M11.9124 14.2148L11.9679 14.0421L12.0546 14.0698" fill="white"/>
<path d="M12.454 13.474L12.4092 13.612L12.4781 13.6344" fill="white"/>
<path d="M12.454 13.474L12.4988 13.612L12.4298 13.6344" fill="white"/>
<path d="M12.5903 13.5742L12.4468 13.5779L12.4483 13.6467" fill="white"/>
<path d="M12.5918 13.5705L12.4778 13.6595L12.4319 13.6045" fill="white"/>
<path d="M12.316 13.5705L12.4301 13.6595L12.476 13.6045" fill="white"/>
<path d="M12.3175 13.5742L12.461 13.5779L12.4595 13.6467" fill="white"/>
<path d="M12.5391 13.7366L12.4946 13.5985L12.4253 13.6206" fill="white"/>
<path d="M12.5397 13.7364L12.4219 13.6517L12.464 13.5925" fill="white"/>
<path d="M12.3682 13.7364L12.486 13.6517L12.4439 13.5925" fill="white"/>
<path d="M12.3688 13.7366L12.4132 13.5985L12.4825 13.6206" fill="white"/>
<path d="M11.6185 13.3498L11.5737 13.4877L11.6427 13.5101" fill="white"/>
<path d="M11.6185 13.3498L11.6633 13.4877L11.5944 13.5101" fill="white"/>
<path d="M11.7549 13.45L11.6114 13.4536L11.6128 13.5225" fill="white"/>
<path d="M11.7563 13.4462L11.6423 13.5352L11.5964 13.4803" fill="white"/>
<path d="M11.4806 13.4462L11.5946 13.5352L11.6405 13.4803" fill="white"/>
<path d="M11.4821 13.45L11.6256 13.4536L11.6241 13.5225" fill="white"/>
<path d="M11.7036 13.6123L11.6592 13.4742L11.5899 13.4963" fill="white"/>
<path d="M11.7042 13.6121L11.5864 13.5274L11.6285 13.4682" fill="white"/>
<path d="M11.5327 13.6121L11.6505 13.5274L11.6084 13.4682" fill="white"/>
<path d="M11.5333 13.6123L11.5778 13.4742L11.6471 13.4963" fill="white"/>
<path d="M8.46289 13.1254L8.39568 13.3322L8.49911 13.3658" fill="white"/>
<path d="M8.46289 13.1254L8.5301 13.3322L8.42667 13.3658" fill="white"/>
<path d="M8.6676 13.2756L8.45233 13.2811L8.45455 13.3844" fill="white"/>
<path d="M8.6698 13.2701L8.49877 13.4035L8.42992 13.3211" fill="white"/>
<path d="M8.2561 13.2701L8.42714 13.4035L8.49599 13.3211" fill="white"/>
<path d="M8.2583 13.2756L8.47358 13.2811L8.47135 13.3844" fill="white"/>
<path d="M8.59082 13.5192L8.52413 13.312L8.42018 13.3452" fill="white"/>
<path d="M8.59155 13.5188L8.41483 13.3918L8.478 13.303" fill="white"/>
<path d="M8.33447 13.5188L8.51119 13.3918L8.44803 13.303" fill="white"/>
<path d="M8.33521 13.5192L8.4019 13.312L8.50584 13.3452" fill="white"/>
<path d="M10.4999 14.5477L10.4775 14.6167L10.5119 14.6279" fill="white"/>
<path d="M10.4999 14.5477L10.5223 14.6167L10.4878 14.6279" fill="white"/>
<path d="M10.5681 14.5978L10.4964 14.5997L10.4971 14.6341" fill="white"/>
<path d="M10.5688 14.596L10.5118 14.6404L10.4889 14.613" fill="white"/>
<path d="M10.4309 14.596L10.4879 14.6404L10.5109 14.613" fill="white"/>
<path d="M10.4316 14.5978L10.5034 14.5997L10.5027 14.6341" fill="white"/>
<path d="M10.5426 14.679L10.5204 14.6099L10.4857 14.621" fill="white"/>
<path d="M10.5428 14.6789L10.4839 14.6366L10.505 14.607" fill="white"/>
<path d="M10.457 14.6789L10.5159 14.6366L10.4949 14.607" fill="white"/>
<path d="M10.4573 14.679L10.4795 14.6099L10.5142 14.621" fill="white"/>
</g>
</svg>
