<svg width="20" height="21" viewBox="0 0 20 21" fill="none" xmlns="http://www.w3.org/2000/svg">
<mask id="mask0_20_1913" style="mask-type:alpha" maskUnits="userSpaceOnUse" x="0" y="0" width="20" height="21">
<circle cx="10" cy="10.5" r="10" fill="#D9D9D9"/>
</mask>
<g mask="url(#mask0_20_1913)">
<path d="M-4 0H35V21H-4V0Z" fill="#B22234"/>
<path d="M-4 2.42308H35H-4ZM35 5.65385H-4H35ZM-4 8.88462H35H-4ZM35 12.1154H-4H35ZM-4 15.3462H35H-4ZM35 18.5769H-4H35Z" fill="black"/>
<path d="M-4 2.42308H35M35 5.65385H-4M-4 8.88462H35M35 12.1154H-4M-4 15.3462H35M35 18.5769H-4" stroke="white" stroke-width="0.5"/>
<path d="M-4 0H11.6V11.3077H-4V0Z" fill="#3C3B6E"/>
<path d="M-0.10002 0.484615L0.271211 1.65352L-0.700684 0.931097H0.500648L-0.471252 1.65352L-0.10002 0.484615Z" fill="white"/>
<path d="M-0.10002 2.74615L0.271211 3.91506L-0.700684 3.19264H0.500648L-0.471252 3.91506L-0.10002 2.74615Z" fill="white"/>
<path d="M-0.10002 5.00769L0.271211 6.1766L-0.700684 5.45417H0.500648L-0.471252 6.1766L-0.10002 5.00769Z" fill="white"/>
<path d="M-0.10002 7.26923L0.271211 8.43813L-0.700684 7.71571H0.500648L-0.471252 8.43813L-0.10002 7.26923Z" fill="white"/>
<path d="M-0.10002 9.53077L0.271211 10.6997L-0.700684 9.97725H0.500648L-0.471252 10.6997L-0.10002 9.53077Z" fill="white"/>
<path d="M1.20003 1.61539L1.57126 2.78429L0.599365 2.06187H1.8007L0.828797 2.78429L1.20003 1.61539Z" fill="white"/>
<path d="M1.20003 3.87692L1.57126 5.04583L0.599365 4.32341H1.8007L0.828797 5.04583L1.20003 3.87692Z" fill="white"/>
<path d="M1.20003 6.13846L1.57126 7.30737L0.599365 6.58494H1.8007L0.828797 7.30737L1.20003 6.13846Z" fill="white"/>
<path d="M1.20003 8.4L1.57126 9.5689L0.599365 8.84648H1.8007L0.828797 9.5689L1.20003 8.4Z" fill="white"/>
<path d="M2.49996 0.484615L2.87119 1.65352L1.89929 0.931097H3.10062L2.12872 1.65352L2.49996 0.484615Z" fill="white"/>
<path d="M2.49996 2.74615L2.87119 3.91506L1.89929 3.19264H3.10062L2.12872 3.91506L2.49996 2.74615Z" fill="white"/>
<path d="M2.49996 5.00769L2.87119 6.1766L1.89929 5.45417H3.10062L2.12872 6.1766L2.49996 5.00769Z" fill="white"/>
<path d="M2.49996 7.26923L2.87119 8.43813L1.89929 7.71571H3.10062L2.12872 8.43813L2.49996 7.26923Z" fill="white"/>
<path d="M2.49996 9.53077L2.87119 10.6997L1.89929 9.97725H3.10062L2.12872 10.6997L2.49996 9.53077Z" fill="white"/>
<path d="M3.8 1.61539L4.17124 2.78429L3.19934 2.06187H4.40067L3.42877 2.78429L3.8 1.61539Z" fill="white"/>
<path d="M3.8 3.87692L4.17124 5.04583L3.19934 4.32341H4.40067L3.42877 5.04583L3.8 3.87692Z" fill="white"/>
<path d="M3.8 6.13846L4.17124 7.30737L3.19934 6.58494H4.40067L3.42877 7.30737L3.8 6.13846Z" fill="white"/>
<path d="M3.8 8.4L4.17124 9.5689L3.19934 8.84648H4.40067L3.42877 9.5689L3.8 8.4Z" fill="white"/>
<path d="M5.09993 0.484615L5.47116 1.65352L4.49927 0.931097H5.7006L4.7287 1.65352L5.09993 0.484615Z" fill="white"/>
<path d="M5.09993 2.74615L5.47116 3.91506L4.49927 3.19264H5.7006L4.7287 3.91506L5.09993 2.74615Z" fill="white"/>
<path d="M5.09993 5.00769L5.47116 6.1766L4.49927 5.45417H5.7006L4.7287 6.1766L5.09993 5.00769Z" fill="white"/>
<path d="M5.09993 7.26923L5.47116 8.43813L4.49927 7.71571H5.7006L4.7287 8.43813L5.09993 7.26923Z" fill="white"/>
<path d="M5.09993 9.53077L5.47116 10.6997L4.49927 9.97725H5.7006L4.7287 10.6997L5.09993 9.53077Z" fill="white"/>
<path d="M6.39998 1.61539L6.77121 2.78429L5.79932 2.06187H7.00065L6.02875 2.78429L6.39998 1.61539Z" fill="white"/>
<path d="M6.39998 3.87692L6.77121 5.04583L5.79932 4.32341H7.00065L6.02875 5.04583L6.39998 3.87692Z" fill="white"/>
<path d="M6.39998 6.13846L6.77121 7.30737L5.79932 6.58494H7.00065L6.02875 7.30737L6.39998 6.13846Z" fill="white"/>
<path d="M6.39998 8.4L6.77121 9.5689L5.79932 8.84648H7.00065L6.02875 9.5689L6.39998 8.4Z" fill="white"/>
<path d="M7.70003 0.484615L8.07126 1.65352L7.09937 0.931097H8.3007L7.3288 1.65352L7.70003 0.484615Z" fill="white"/>
<path d="M7.70003 2.74615L8.07126 3.91506L7.09937 3.19264H8.3007L7.3288 3.91506L7.70003 2.74615Z" fill="white"/>
<path d="M7.70003 5.00769L8.07126 6.1766L7.09937 5.45417H8.3007L7.3288 6.1766L7.70003 5.00769Z" fill="white"/>
<path d="M7.70003 7.26923L8.07126 8.43813L7.09937 7.71571H8.3007L7.3288 8.43813L7.70003 7.26923Z" fill="white"/>
<path d="M7.70003 9.53077L8.07126 10.6997L7.09937 9.97725H8.3007L7.3288 10.6997L7.70003 9.53077Z" fill="white"/>
<path d="M9.00008 1.61539L9.37131 2.78429L8.39941 2.06187H9.60075L8.62885 2.78429L9.00008 1.61539Z" fill="white"/>
<path d="M9.00008 3.87692L9.37131 5.04583L8.39941 4.32341H9.60075L8.62885 5.04583L9.00008 3.87692Z" fill="white"/>
<path d="M9.00008 6.13846L9.37131 7.30737L8.39941 6.58494H9.60075L8.62885 7.30737L9.00008 6.13846Z" fill="white"/>
<path d="M9.00008 8.4L9.37131 9.5689L8.39941 8.84648H9.60075L8.62885 9.5689L9.00008 8.4Z" fill="white"/>
<path d="M10.3 0.484615L10.6712 1.65352L9.69934 0.931097H10.9007L9.92877 1.65352L10.3 0.484615Z" fill="white"/>
<path d="M10.3 2.74615L10.6712 3.91506L9.69934 3.19264H10.9007L9.92877 3.91506L10.3 2.74615Z" fill="white"/>
<path d="M10.3 5.00769L10.6712 6.1766L9.69934 5.45417H10.9007L9.92877 6.1766L10.3 5.00769Z" fill="white"/>
<path d="M10.3 7.26923L10.6712 8.43813L9.69934 7.71571H10.9007L9.92877 8.43813L10.3 7.26923Z" fill="white"/>
<path d="M10.3 9.53077L10.6712 10.6997L9.69934 9.97725H10.9007L9.92877 10.6997L10.3 9.53077Z" fill="white"/>
</g>
</svg>
