<svg width="20" height="20" viewBox="0 0 20 20" fill="none" xmlns="http://www.w3.org/2000/svg">
<path d="M10 8.14C9.63213 8.14 9.27251 8.24909 8.96664 8.45347C8.66076 8.65785 8.42236 8.94834 8.28158 9.28821C8.1408 9.62808 8.10397 10.0021 8.17574 10.3629C8.24751 10.7237 8.42466 11.0551 8.68478 11.3152C8.94491 11.5753 9.27633 11.7525 9.63713 11.8243C9.99794 11.896 10.3719 11.8592 10.7118 11.7184C11.0517 11.5776 11.3422 11.3392 11.5465 11.0334C11.7509 10.7275 11.86 10.3679 11.86 10C11.86 9.75574 11.8119 9.51387 11.7184 9.28821C11.6249 9.06254 11.4879 8.8575 11.3152 8.68478C11.1425 8.51206 10.9375 8.37506 10.7118 8.28158C10.4861 8.18811 10.2443 8.14 10 8.14ZM17.4475 6.3025C17.4436 5.72332 17.3369 5.14943 17.1325 4.6075C16.982 4.21094 16.749 3.85082 16.4491 3.55089C16.1492 3.25096 15.7891 3.01804 15.3925 2.8675C14.8506 2.6631 14.2767 2.55645 13.6975 2.5525C12.73 2.5 12.445 2.5 10 2.5C7.555 2.5 7.27 2.5 6.3025 2.5525C5.72332 2.55645 5.14943 2.6631 4.6075 2.8675C4.21094 3.01804 3.85082 3.25096 3.55089 3.55089C3.25096 3.85082 3.01804 4.21094 2.8675 4.6075C2.6631 5.14943 2.55645 5.72332 2.5525 6.3025C2.5 7.27 2.5 7.555 2.5 10C2.5 12.445 2.5 12.73 2.5525 13.6975C2.56057 14.2787 2.66708 14.8544 2.8675 15.4C3.01737 15.7947 3.2501 16.1528 3.55 16.45C3.84865 16.7517 4.20954 16.9846 4.6075 17.1325C5.14943 17.3369 5.72332 17.4436 6.3025 17.4475C7.27 17.5 7.555 17.5 10 17.5C12.445 17.5 12.73 17.5 13.6975 17.4475C14.2767 17.4436 14.8506 17.3369 15.3925 17.1325C15.7905 16.9846 16.1514 16.7517 16.45 16.45C16.7499 16.1528 16.9826 15.7947 17.1325 15.4C17.3367 14.8554 17.4433 14.2791 17.4475 13.6975C17.5 12.73 17.5 12.445 17.5 10C17.5 7.555 17.5 7.27 17.4475 6.3025ZM15.5425 12.3025C15.5184 12.7653 15.4197 13.2212 15.25 13.6525C15.1044 14.0123 14.8879 14.3391 14.6135 14.6135C14.3391 14.8879 14.0123 15.1044 13.6525 15.25C13.2171 15.4102 12.7587 15.4988 12.295 15.5125C11.7025 15.5125 11.545 15.5125 10 15.5125C8.455 15.5125 8.2975 15.5125 7.705 15.5125C7.2413 15.4988 6.78287 15.4102 6.3475 15.25C5.97558 15.1118 5.63971 14.8913 5.365 14.605C5.09325 14.3359 4.88338 14.0109 4.75 13.6525C4.58917 13.2176 4.50295 12.7586 4.495 12.295C4.495 11.7025 4.495 11.545 4.495 10C4.495 8.455 4.495 8.2975 4.495 7.705C4.50295 7.24137 4.58917 6.78241 4.75 6.3475C4.88821 5.97558 5.10871 5.63971 5.395 5.365C5.66525 5.09472 5.98995 4.88507 6.3475 4.75C6.78287 4.5898 7.2413 4.50116 7.705 4.4875C8.2975 4.4875 8.455 4.4875 10 4.4875C11.545 4.4875 11.7025 4.4875 12.295 4.4875C12.7587 4.50116 13.2171 4.5898 13.6525 4.75C14.0244 4.88821 14.3603 5.10871 14.635 5.395C14.9068 5.66406 15.1166 5.9891 15.25 6.3475C15.4102 6.78287 15.4988 7.2413 15.5125 7.705C15.5125 8.2975 15.5125 8.455 15.5125 10C15.5125 11.545 15.565 11.7025 15.5425 12.295V12.3025ZM14.3425 6.7225C14.2532 6.48024 14.1124 6.26023 13.9298 6.07766C13.7473 5.89509 13.5273 5.7543 13.285 5.665C12.9524 5.5497 12.602 5.49384 12.25 5.5C11.665 5.5 11.5 5.5 10 5.5C8.5 5.5 8.335 5.5 7.75 5.5C7.3962 5.50346 7.0458 5.56948 6.715 5.695C6.47645 5.78024 6.25877 5.91528 6.07644 6.09115C5.89411 6.26702 5.7513 6.47968 5.6575 6.715C5.54858 7.04903 5.49537 7.3987 5.5 7.75C5.5 8.335 5.5 8.5 5.5 10C5.5 11.5 5.5 11.665 5.5 12.25C5.50744 12.6034 5.57333 12.9531 5.695 13.285C5.7843 13.5273 5.92509 13.7473 6.10766 13.9298C6.29023 14.1124 6.51024 14.2532 6.7525 14.3425C7.0725 14.4602 7.40924 14.526 7.75 14.5375C8.335 14.5375 8.5 14.5375 10 14.5375C11.5 14.5375 11.665 14.5375 12.25 14.5375C12.6038 14.534 12.9542 14.468 13.285 14.3425C13.5273 14.2532 13.7473 14.1124 13.9298 13.9298C14.1124 13.7473 14.2532 13.5273 14.3425 13.285C14.468 12.9542 14.534 12.6038 14.5375 12.25C14.5375 11.665 14.5375 11.5 14.5375 10C14.5375 8.5 14.5375 8.335 14.5375 7.75C14.5377 7.39585 14.4716 7.04479 14.3425 6.715V6.7225ZM10 12.865C9.62412 12.865 9.25192 12.7908 8.90475 12.6468C8.55757 12.5027 8.24223 12.2915 7.97679 12.0254C7.71134 11.7593 7.50102 11.4434 7.35786 11.0958C7.2147 10.7483 7.14151 10.3759 7.1425 10C7.1425 9.43304 7.31072 8.87882 7.62586 8.40751C7.94101 7.93621 8.3889 7.569 8.91285 7.35238C9.4368 7.13575 10.0132 7.07946 10.5692 7.19061C11.1252 7.30177 11.6356 7.57538 12.036 7.97681C12.4364 8.37823 12.7087 8.88943 12.8184 9.44568C12.9281 10.0019 12.8703 10.5782 12.6523 11.1016C12.4343 11.625 12.0659 12.0719 11.5937 12.3858C11.1216 12.6997 10.567 12.8665 10 12.865ZM13 7.6975C12.8342 7.67995 12.6808 7.60167 12.5693 7.47773C12.4578 7.35379 12.3961 7.19297 12.3961 7.02625C12.3961 6.85953 12.4578 6.69871 12.5693 6.57477C12.6808 6.45083 12.8342 6.37255 13 6.355C13.1658 6.37255 13.3192 6.45083 13.4307 6.57477C13.5422 6.69871 13.6039 6.85953 13.6039 7.02625C13.6039 7.19297 13.5422 7.35379 13.4307 7.47773C13.3192 7.60167 13.1658 7.67995 13 7.6975Z" fill="#DEDEDE"/>
</svg>
