<svg width="28" height="28" viewBox="0 0 28 28" fill="none" xmlns="http://www.w3.org/2000/svg">
<path d="M14 11.148C13.4359 11.148 12.8845 11.3153 12.4155 11.6286C11.9465 11.942 11.581 12.3875 11.3651 12.9086C11.1492 13.4297 11.0928 14.0032 11.2028 14.5564C11.3128 15.1096 11.5845 15.6178 11.9833 16.0167C12.3822 16.4155 12.8904 16.6872 13.4436 16.7972C13.9968 16.9072 14.5703 16.8508 15.0914 16.6349C15.6125 16.419 16.058 16.0535 16.3714 15.5845C16.6847 15.1155 16.852 14.5641 16.852 14C16.852 13.6255 16.7782 13.2546 16.6349 12.9086C16.4916 12.5626 16.2815 12.2482 16.0167 11.9833C15.7518 11.7185 15.4374 11.5084 15.0914 11.3651C14.7454 11.2218 14.3745 11.148 14 11.148ZM25.4195 8.3305C25.4135 7.44242 25.2499 6.56246 24.9365 5.7315C24.7057 5.12345 24.3485 4.57126 23.8886 4.11136C23.4287 3.65147 22.8766 3.29433 22.2685 3.0635C21.4375 2.75008 20.5576 2.58655 19.6695 2.5805C18.186 2.5 17.749 2.5 14 2.5C10.251 2.5 9.814 2.5 8.3305 2.5805C7.44242 2.58655 6.56246 2.75008 5.7315 3.0635C5.12345 3.29433 4.57126 3.65147 4.11136 4.11136C3.65147 4.57126 3.29433 5.12345 3.0635 5.7315C2.75008 6.56246 2.58655 7.44242 2.5805 8.3305C2.5 9.814 2.5 10.251 2.5 14C2.5 17.749 2.5 18.186 2.5805 19.6695C2.59288 20.5607 2.75619 21.4434 3.0635 22.28C3.2933 22.8853 3.65015 23.4343 4.11 23.89C4.56792 24.3527 5.1213 24.7098 5.7315 24.9365C6.56246 25.2499 7.44242 25.4135 8.3305 25.4195C9.814 25.5 10.251 25.5 14 25.5C17.749 25.5 18.186 25.5 19.6695 25.4195C20.5576 25.4135 21.4375 25.2499 22.2685 24.9365C22.8787 24.7098 23.4321 24.3527 23.89 23.89C24.3499 23.4343 24.7067 22.8853 24.9365 22.28C25.2496 21.445 25.4131 20.5613 25.4195 19.6695C25.5 18.186 25.5 17.749 25.5 14C25.5 10.251 25.5 9.814 25.4195 8.3305ZM22.4985 17.5305C22.4616 18.2402 22.3101 18.9392 22.05 19.6005C21.8267 20.1521 21.4949 20.6533 21.0741 21.0741C20.6533 21.4949 20.1521 21.8267 19.6005 22.05C18.9329 22.2956 18.23 22.4316 17.519 22.4525C16.6105 22.4525 16.369 22.4525 14 22.4525C11.631 22.4525 11.3895 22.4525 10.481 22.4525C9.76999 22.4316 9.06706 22.2956 8.3995 22.05C7.82922 21.8381 7.31422 21.5 6.893 21.061C6.47632 20.6484 6.15452 20.15 5.95 19.6005C5.70339 18.9336 5.5712 18.2299 5.559 17.519C5.559 16.6105 5.559 16.369 5.559 14C5.559 11.631 5.559 11.3895 5.559 10.481C5.5712 9.7701 5.70339 9.06637 5.95 8.3995C6.16192 7.82922 6.50002 7.31422 6.939 6.893C7.35338 6.47857 7.85125 6.15711 8.3995 5.95C9.06706 5.70437 9.76999 5.56844 10.481 5.5475C11.3895 5.5475 11.631 5.5475 14 5.5475C16.369 5.5475 16.6105 5.5475 17.519 5.5475C18.23 5.56844 18.9329 5.70437 19.6005 5.95C20.1708 6.16192 20.6858 6.50002 21.107 6.939C21.5237 7.35156 21.8455 7.84995 22.05 8.3995C22.2956 9.06706 22.4316 9.76999 22.4525 10.481C22.4525 11.3895 22.4525 11.631 22.4525 14C22.4525 16.369 22.533 16.6105 22.4985 17.519V17.5305ZM20.6585 8.9745C20.5216 8.60303 20.3057 8.26569 20.0258 7.98575C19.7458 7.7058 19.4085 7.48992 19.037 7.353C18.5269 7.1762 17.9897 7.09056 17.45 7.1C16.553 7.1 16.3 7.1 14 7.1C11.7 7.1 11.447 7.1 10.55 7.1C10.0075 7.1053 9.47023 7.20653 8.963 7.399C8.59722 7.5297 8.26345 7.73677 7.98387 8.00643C7.7043 8.27609 7.48532 8.60217 7.3415 8.963C7.17449 9.47517 7.0929 10.0113 7.1 10.55C7.1 11.447 7.1 11.7 7.1 14C7.1 16.3 7.1 16.553 7.1 17.45C7.1114 17.9919 7.21243 18.5281 7.399 19.037C7.53592 19.4085 7.7518 19.7458 8.03175 20.0258C8.31169 20.3057 8.64903 20.5216 9.0205 20.6585C9.51117 20.839 10.0275 20.9399 10.55 20.9575C11.447 20.9575 11.7 20.9575 14 20.9575C16.3 20.9575 16.553 20.9575 17.45 20.9575C17.9925 20.9522 18.5298 20.851 19.037 20.6585C19.4085 20.5216 19.7458 20.3057 20.0258 20.0258C20.3057 19.7458 20.5216 19.4085 20.6585 19.037C20.851 18.5298 20.9522 17.9925 20.9575 17.45C20.9575 16.553 20.9575 16.3 20.9575 14C20.9575 11.7 20.9575 11.447 20.9575 10.55C20.9578 10.007 20.8564 9.46868 20.6585 8.963V8.9745ZM14 18.393C13.4236 18.393 12.853 18.2793 12.3206 18.0584C11.7883 17.8375 11.3047 17.5137 10.8977 17.1056C10.4907 16.6975 10.1682 16.2132 9.94872 15.6803C9.7292 15.1473 9.61699 14.5764 9.6185 14C9.6185 13.1307 9.87644 12.2809 10.3597 11.5582C10.8429 10.8355 11.5297 10.2725 12.333 9.94031C13.1364 9.60815 14.0203 9.52183 14.8728 9.69227C15.7252 9.86271 16.508 10.2822 17.1219 10.8978C17.7358 11.5133 18.1533 12.2971 18.3215 13.15C18.4897 14.003 18.4011 14.8866 18.0668 15.6891C17.7325 16.4916 17.1677 17.1769 16.4437 17.6582C15.7198 18.1396 14.8693 18.3953 14 18.393ZM18.6 10.4695C18.3458 10.4426 18.1105 10.3226 17.9395 10.1325C17.7686 9.94248 17.6739 9.69589 17.6739 9.44025C17.6739 9.18461 17.7686 8.93802 17.9395 8.74798C18.1105 8.55795 18.3458 8.43791 18.6 8.411C18.8542 8.43791 19.0895 8.55795 19.2605 8.74798C19.4314 8.93802 19.5261 9.18461 19.5261 9.44025C19.5261 9.69589 19.4314 9.94248 19.2605 10.1325C19.0895 10.3226 18.8542 10.4426 18.6 10.4695Z" fill="url(#paint0_linear_58_97)"/>
<defs>
<linearGradient id="paint0_linear_58_97" x1="14" y1="2.5" x2="14" y2="25.5" gradientUnits="userSpaceOnUse">
<stop stop-color="#B6F829"/>
<stop offset="1" stop-color="#67DD0A"/>
</linearGradient>
</defs>
</svg>
