<svg width="21" height="21" viewBox="0 0 21 21" fill="none" xmlns="http://www.w3.org/2000/svg">
<path d="M10.4953 14.0833C9.49955 14.0833 8.65417 13.7343 7.95919 13.0361C7.26421 12.338 6.91673 11.4911 6.91673 10.4953C6.91673 9.49951 7.26579 8.65413 7.96392 7.95915C8.66203 7.26417 9.50897 6.91669 10.5047 6.91669C11.5005 6.91669 12.3459 7.26575 13.0409 7.96387C13.7359 8.66199 14.0834 9.50893 14.0834 10.5047C14.0834 11.5005 13.7343 12.3459 13.0362 13.0409C12.3381 13.7358 11.4911 14.0833 10.4953 14.0833ZM5.00004 11.0416H1.70837V9.95835H5.00004V11.0416ZM19.2917 11.0416H16V9.95835H19.2917V11.0416ZM9.9584 5V1.70835H11.0417V5H9.9584ZM9.9584 19.2917V16H11.0417V19.2917H9.9584ZM6.24846 6.98073L4.25487 5.03362L5.01285 4.19231L7.01767 6.20673L6.24846 6.98073ZM15.9872 16.7243L14.0113 14.7804L14.7516 13.9984L16.7452 15.9663L15.9872 16.7243ZM13.9776 6.24839L15.9664 4.29648L16.7244 5.01279L14.7933 7.03844L13.9776 6.24839ZM4.19237 15.9872L6.2196 14.0529L6.94394 14.7516L5.04652 16.774L4.19237 15.9872Z" fill="#0E0E0E"/>
</svg>
