<svg width="20" height="20" viewBox="0 0 20 20" fill="none" xmlns="http://www.w3.org/2000/svg">
<path d="M16.3281 2.5H3.67188C3.02441 2.5 2.5 3.02441 2.5 3.67188V16.3281C2.5 16.9756 3.02441 17.5 3.67188 17.5H16.3281C16.9756 17.5 17.5 16.9756 17.5 16.3281V3.67188C17.5 3.02441 16.9756 2.5 16.3281 2.5ZM7.90234 13.1377H6.44043V8.45898H7.90234V13.1377ZM7.13184 7.87305H7.12012C6.58984 7.87305 6.24707 7.51563 6.24707 7.06152C6.24707 6.59863 6.60156 6.25 7.14062 6.25C7.67969 6.25 8.01074 6.59863 8.02246 7.06152C8.02539 7.5127 7.68262 7.87305 7.13184 7.87305ZM13.75 13.1377H12.0918V10.7178C12.0918 10.085 11.834 9.65137 11.2627 9.65137C10.8262 9.65137 10.583 9.94434 10.4717 10.2256C10.4307 10.3252 10.4365 10.4658 10.4365 10.6094V13.1377H8.79297C8.79297 13.1377 8.81348 8.84863 8.79297 8.45898H10.4365V9.19434C10.5332 8.87207 11.0576 8.41504 11.8955 8.41504C12.9355 8.41504 13.75 9.08887 13.75 10.5361V13.1377Z" fill="#DEDEDE"/>
</svg>
