<svg width="40" height="40" viewBox="0 0 40 40" fill="none" xmlns="http://www.w3.org/2000/svg">
<path d="M18.3334 28.3334H11.6667C9.36115 28.3334 7.39587 27.5209 5.77087 25.8959C4.14587 24.2709 3.33337 22.3056 3.33337 20.0001C3.33337 17.6945 4.14587 15.7292 5.77087 14.1042C7.39587 12.4792 9.36115 11.6667 11.6667 11.6667H18.3334V15.0001H11.6667C10.2778 15.0001 9.09726 15.4862 8.12504 16.4584C7.15282 17.4306 6.66671 18.6112 6.66671 20.0001C6.66671 21.389 7.15282 22.5695 8.12504 23.5417C9.09726 24.514 10.2778 25.0001 11.6667 25.0001H18.3334V28.3334ZM13.3334 21.6667V18.3334H26.6667V21.6667H13.3334ZM21.6667 28.3334V25.0001H28.3334C29.7223 25.0001 30.9028 24.514 31.875 23.5417C32.8473 22.5695 33.3334 21.389 33.3334 20.0001C33.3334 18.6112 32.8473 17.4306 31.875 16.4584C30.9028 15.4862 29.7223 15.0001 28.3334 15.0001H21.6667V11.6667H28.3334C30.6389 11.6667 32.6042 12.4792 34.2292 14.1042C35.8542 15.7292 36.6667 17.6945 36.6667 20.0001C36.6667 22.3056 35.8542 24.2709 34.2292 25.8959C32.6042 27.5209 30.6389 28.3334 28.3334 28.3334H21.6667Z" fill="#B2B2B2"/>
</svg>
