<svg width="28" height="28" viewBox="0 0 28 28" fill="none" xmlns="http://www.w3.org/2000/svg">
<path d="M23.7031 2.5H4.29688C3.3041 2.5 2.5 3.3041 2.5 4.29688V23.7031C2.5 24.6959 3.3041 25.5 4.29688 25.5H23.7031C24.6959 25.5 25.5 24.6959 25.5 23.7031V4.29688C25.5 3.3041 24.6959 2.5 23.7031 2.5ZM10.7836 18.8111H8.54199V11.6371H10.7836V18.8111ZM9.60215 10.7387H9.58418C8.77109 10.7387 8.24551 10.1906 8.24551 9.49434C8.24551 8.78457 8.78906 8.25 9.61562 8.25C10.4422 8.25 10.9498 8.78457 10.9678 9.49434C10.9723 10.1861 10.4467 10.7387 9.60215 10.7387ZM19.75 18.8111H17.2074V15.1006C17.2074 14.1303 16.8121 13.4654 15.9361 13.4654C15.2668 13.4654 14.8939 13.9146 14.7232 14.3459C14.6604 14.4986 14.6693 14.7143 14.6693 14.9344V18.8111H12.1492C12.1492 18.8111 12.1807 12.2346 12.1492 11.6371H14.6693V12.7646C14.8176 12.2705 15.6217 11.5697 16.9064 11.5697C18.5012 11.5697 19.75 12.6029 19.75 14.8221V18.8111Z" fill="url(#paint0_linear_62_2)"/>
<defs>
<linearGradient id="paint0_linear_62_2" x1="14" y1="2.5" x2="14" y2="25.5" gradientUnits="userSpaceOnUse">
<stop stop-color="#B6F829"/>
<stop offset="1" stop-color="#67DD0A"/>
</linearGradient>
</defs>
</svg>
