<svg width="27" height="26" viewBox="0 0 27 26" fill="none" xmlns="http://www.w3.org/2000/svg">
<path d="M22.4444 12.5C22.4444 10.0083 21.5766 7.89468 19.841 6.15903C18.1053 4.42338 15.9917 3.55556 13.5 3.55556V1C15.0972 1 16.5933 1.30347 17.9882 1.91042C19.3831 2.51736 20.597 3.33727 21.6299 4.37014C22.6627 5.40301 23.4826 6.6169 24.0896 8.01181C24.6965 9.40671 25 10.9028 25 12.5H22.4444ZM17.3333 12.5C17.3333 11.4352 16.9606 10.5301 16.2153 9.78472C15.4699 9.03935 14.5648 8.66667 13.5 8.66667V6.11111C15.2676 6.11111 16.7743 6.73403 18.0201 7.97986C19.266 9.22569 19.8889 10.7324 19.8889 12.5H17.3333ZM23.6583 24.0639C20.9963 24.0639 18.3662 23.4836 15.7681 22.3229C13.1699 21.1623 10.806 19.5171 8.67639 17.3875C6.54676 15.2579 4.90162 12.894 3.74097 10.2958C2.58032 7.69769 2 5.06759 2 2.40556C2 2.02222 2.12778 1.70278 2.38333 1.44722C2.63889 1.19167 2.95833 1.06389 3.34167 1.06389H8.51667C8.81482 1.06389 9.08102 1.16505 9.31528 1.36736C9.54954 1.56968 9.68796 1.80926 9.73056 2.08611L10.5611 6.55833C10.6037 6.89907 10.5931 7.18657 10.5292 7.42083C10.4653 7.65509 10.3481 7.85741 10.1778 8.02778L7.07917 11.1583C7.50509 11.9463 8.01088 12.7076 8.59653 13.4424C9.18218 14.1771 9.82639 14.8852 10.5292 15.5667C11.1894 16.2269 11.8815 16.8391 12.6056 17.4035C13.3296 17.9678 14.0963 18.4843 14.9056 18.9528L17.9083 15.95C18.1 15.7583 18.3502 15.6146 18.659 15.5188C18.9678 15.4229 19.2713 15.3963 19.5694 15.4389L23.9778 16.3333C24.2759 16.4185 24.5208 16.5729 24.7125 16.7965C24.9042 17.0201 25 17.2704 25 17.5472V22.7222C25 23.1056 24.8722 23.425 24.6167 23.6806C24.3611 23.9361 24.0417 24.0639 23.6583 24.0639Z" fill="url(#paint0_linear_58_67)"/>
<defs>
<linearGradient id="paint0_linear_58_67" x1="13.5" y1="1" x2="13.5" y2="24.0639" gradientUnits="userSpaceOnUse">
<stop stop-color="#B6F829"/>
<stop offset="1" stop-color="#67DD0A"/>
</linearGradient>
</defs>
</svg>
