<svg width="20" height="20" viewBox="0 0 20 20" fill="none" xmlns="http://www.w3.org/2000/svg">
<path d="M15.8333 9.979C15.8333 8.354 15.2674 6.97553 14.1354 5.84359C13.0035 4.71164 11.625 4.14567 10 4.14567V2.479C11.0417 2.479 12.0174 2.67692 12.9271 3.07275C13.8368 3.46859 14.6285 4.00331 15.3021 4.67692C15.9757 5.35053 16.5104 6.1422 16.9062 7.05192C17.3021 7.96164 17.5 8.93734 17.5 9.979H15.8333ZM12.5 9.979C12.5 9.28456 12.2569 8.69428 11.7708 8.20817C11.2847 7.72206 10.6944 7.479 10 7.479V5.81234C11.1528 5.81234 12.1354 6.21859 12.9479 7.03109C13.7604 7.84359 14.1667 8.82623 14.1667 9.979H12.5ZM16.625 17.5207C14.8889 17.5207 13.1736 17.1422 11.4792 16.3853C9.78472 15.6283 8.24306 14.5554 6.85417 13.1665C5.46528 11.7776 4.39236 10.2359 3.63542 8.5415C2.87847 6.84706 2.5 5.13178 2.5 3.39567C2.5 3.14567 2.58333 2.93734 2.75 2.77067C2.91667 2.604 3.125 2.52067 3.375 2.52067H6.75C6.94444 2.52067 7.11806 2.58664 7.27083 2.71859C7.42361 2.85053 7.51389 3.00678 7.54167 3.18734L8.08333 6.104C8.11111 6.32623 8.10417 6.51373 8.0625 6.6665C8.02083 6.81928 7.94444 6.95123 7.83333 7.06234L5.8125 9.104C6.09028 9.61789 6.42014 10.1144 6.80208 10.5936C7.18403 11.0728 7.60417 11.5346 8.0625 11.979C8.49306 12.4096 8.94444 12.8089 9.41667 13.1769C9.88889 13.545 10.3889 13.8818 10.9167 14.1873L12.875 12.229C13 12.104 13.1632 12.0103 13.3646 11.9478C13.566 11.8853 13.7639 11.8679 13.9583 11.8957L16.8333 12.479C17.0278 12.5346 17.1875 12.6353 17.3125 12.7811C17.4375 12.9269 17.5 13.0901 17.5 13.2707V16.6457C17.5 16.8957 17.4167 17.104 17.25 17.2707C17.0833 17.4373 16.875 17.5207 16.625 17.5207Z" fill="#DEDEDE"/>
</svg>
