<svg width="28" height="28" viewBox="0 0 28 28" fill="none" xmlns="http://www.w3.org/2000/svg">
<path fill-rule="evenodd" clip-rule="evenodd" d="M20.6942 18.7393C20.417 19.5238 19.3153 20.1728 18.4367 20.3626C17.8353 20.4903 17.0509 20.5913 14.4082 19.4962C11.4401 18.2665 7.3185 13.8861 7.3185 10.9711C7.3185 9.48719 8.1741 7.75923 9.67025 7.75923C10.3902 7.75923 10.5489 7.77327 10.7858 8.34153C11.0629 9.01104 11.7391 10.6605 11.8196 10.8296C12.152 11.5233 11.4815 11.9294 10.995 12.5333C10.8398 12.715 10.6639 12.9116 10.8605 13.2498C11.056 13.5811 11.7322 14.6832 12.7258 15.5678C14.0092 16.7112 15.0499 17.0763 15.4225 17.2316C15.6997 17.3466 16.0309 17.3198 16.2333 17.1035C16.4898 16.8263 16.8083 16.3663 17.1326 15.9131C17.3614 15.5887 17.6524 15.5482 17.9572 15.6632C18.163 15.7346 20.7792 16.9496 20.8896 17.144C20.9713 17.2855 20.9713 17.9547 20.6942 18.7393ZM14.0023 2.5H13.9965C7.65659 2.5 2.5 7.65815 2.5 14C2.5 16.5147 3.31076 18.8476 4.68961 20.74L3.25671 25.0132L7.67616 23.6009C9.49431 24.8042 11.6643 25.5 14.0023 25.5C20.3422 25.5 25.5 20.3418 25.5 14C25.5 7.65815 20.3422 2.5 14.0023 2.5Z" fill="url(#paint0_linear_58_92)"/>
<defs>
<linearGradient id="paint0_linear_58_92" x1="14" y1="2.5" x2="14" y2="25.5" gradientUnits="userSpaceOnUse">
<stop stop-color="#B6F829"/>
<stop offset="1" stop-color="#67DD0A"/>
</linearGradient>
</defs>
</svg>
