<svg width="40" height="40" viewBox="0 0 40 40" fill="none" xmlns="http://www.w3.org/2000/svg">
<path fill-rule="evenodd" clip-rule="evenodd" d="M28.7315 26.1816C28.37 27.2049 26.933 28.0515 25.787 28.2991C25.0025 28.4656 23.9795 28.5974 20.5325 27.1689C16.661 25.565 11.285 19.8515 11.285 16.0493C11.285 14.1137 12.401 11.8599 14.3525 11.8599C15.2915 11.8599 15.4985 11.8782 15.8075 12.6194C16.169 13.4927 17.051 15.6442 17.156 15.8647C17.5895 16.7695 16.715 17.2992 16.0805 18.0869C15.878 18.324 15.6485 18.5804 15.905 19.0215C16.16 19.4536 17.042 20.8911 18.338 22.0449C20.012 23.5364 21.3695 24.0125 21.8555 24.2151C22.217 24.3651 22.649 24.3302 22.913 24.0481C23.2475 23.6865 23.663 23.0865 24.086 22.4954C24.3845 22.0722 24.764 22.0194 25.1615 22.1694C25.43 22.2625 28.8425 23.8473 28.9865 24.1008C29.093 24.2854 29.093 25.1583 28.7315 26.1816ZM20.003 5H19.9955C11.726 5 5 11.728 5 20C5 23.28 6.05751 26.323 7.85601 28.7913L5.98701 34.365L11.7515 32.5229C14.123 34.0924 16.9535 35 20.003 35C28.2725 35 35 28.272 35 20C35 11.728 28.2725 5 20.003 5Z" fill="#B2B2B2"/>
</svg>
