<svg width="90" height="18" viewBox="0 0 90 18" fill="none" xmlns="http://www.w3.org/2000/svg">
<path d="M4.284 12.96C4.284 14.292 3.966 15.294 3.33 15.966C2.706 16.65 1.806 17.184 0.63 17.568L0 15.858C0.528 15.654 0.924 15.42 1.188 15.156C1.464 14.904 1.65 14.604 1.746 14.256C1.842 13.896 1.89 13.434 1.89 12.87V2.34H4.284V12.96Z" fill="#0E0E0E"/>
<path d="M14.6614 14.778H12.6634L12.5374 13.446C12.1894 13.986 11.7754 14.388 11.2954 14.652C10.8274 14.916 10.2694 15.048 9.62142 15.048C8.76942 15.048 8.10942 14.79 7.64142 14.274C7.18542 13.746 6.95742 13.02 6.95742 12.096V5.256H9.26142V11.808C9.26142 12.348 9.35142 12.732 9.53142 12.96C9.72342 13.188 10.0234 13.302 10.4314 13.302C11.1634 13.302 11.8054 12.852 12.3574 11.952V5.256H14.6614V14.778Z" fill="#0E0E0E"/>
<path d="M19.6861 15.048C18.9541 15.048 18.3781 14.838 17.9581 14.418C17.5501 13.986 17.3461 13.38 17.3461 12.6V1.44L19.6501 1.188V12.528C19.6501 12.972 19.8301 13.194 20.1901 13.194C20.3701 13.194 20.5501 13.164 20.7301 13.104L21.2161 14.724C20.7361 14.94 20.2261 15.048 19.6861 15.048Z" fill="#0E0E0E"/>
<path d="M25.0487 5.256V14.778H22.7447V5.256H25.0487ZM23.8787 0.431999C24.3107 0.431999 24.6587 0.569999 24.9227 0.845999C25.1987 1.11 25.3367 1.44 25.3367 1.836C25.3367 2.232 25.1987 2.562 24.9227 2.826C24.6587 3.09 24.3107 3.222 23.8787 3.222C23.4587 3.222 23.1107 3.09 22.8347 2.826C22.5707 2.562 22.4387 2.232 22.4387 1.836C22.4387 1.44 22.5707 1.11 22.8347 0.845999C23.1107 0.569999 23.4587 0.431999 23.8787 0.431999Z" fill="#0E0E0E"/>
<path d="M31.7128 4.986C33.1168 4.986 34.2088 5.436 34.9888 6.336C35.7808 7.224 36.1768 8.448 36.1768 10.008C36.1768 11.004 35.9968 11.886 35.6368 12.654C35.2768 13.41 34.7608 13.998 34.0888 14.418C33.4168 14.838 32.6188 15.048 31.6948 15.048C30.2908 15.048 29.1928 14.604 28.4008 13.716C27.6088 12.816 27.2128 11.58 27.2128 10.008C27.2128 9.012 27.3928 8.136 27.7528 7.38C28.1128 6.624 28.6288 6.036 29.3008 5.616C29.9848 5.196 30.7888 4.986 31.7128 4.986ZM31.7128 6.732C30.3328 6.732 29.6428 7.824 29.6428 10.008C29.6428 11.136 29.8108 11.97 30.1468 12.51C30.4948 13.038 31.0108 13.302 31.6948 13.302C32.3788 13.302 32.8888 13.032 33.2248 12.492C33.5728 11.952 33.7468 11.124 33.7468 10.008C33.7468 8.892 33.5728 8.07 33.2248 7.542C32.8888 7.002 32.3848 6.732 31.7128 6.732Z" fill="#0E0E0E"/>
<path d="M46.4905 2.07C47.3665 2.07 48.1285 2.196 48.7765 2.448C49.4245 2.7 50.0305 3.084 50.5945 3.6L49.4245 4.95C48.9805 4.578 48.5305 4.308 48.0745 4.14C47.6305 3.972 47.1505 3.888 46.6345 3.888C46.0585 3.888 45.5905 4.02 45.2305 4.284C44.8825 4.536 44.7085 4.896 44.7085 5.364C44.7085 5.676 44.7745 5.934 44.9065 6.138C45.0505 6.342 45.3025 6.534 45.6625 6.714C46.0225 6.894 46.5565 7.092 47.2645 7.308C48.4885 7.692 49.4065 8.172 50.0185 8.748C50.6425 9.312 50.9545 10.14 50.9545 11.232C50.9545 11.976 50.7625 12.636 50.3785 13.212C50.0065 13.788 49.4665 14.238 48.7585 14.562C48.0505 14.886 47.2105 15.048 46.2385 15.048C45.2905 15.048 44.4385 14.898 43.6825 14.598C42.9385 14.286 42.2965 13.866 41.7565 13.338L42.9805 11.97C43.4605 12.378 43.9585 12.69 44.4745 12.906C44.9905 13.11 45.5605 13.212 46.1845 13.212C46.8685 13.212 47.4205 13.05 47.8405 12.726C48.2605 12.402 48.4705 11.946 48.4705 11.358C48.4705 10.998 48.3985 10.704 48.2545 10.476C48.1105 10.236 47.8645 10.026 47.5165 9.846C47.1685 9.654 46.6645 9.456 46.0045 9.252C44.6845 8.844 43.7305 8.352 43.1425 7.776C42.5545 7.2 42.2605 6.444 42.2605 5.508C42.2605 4.824 42.4405 4.224 42.8005 3.708C43.1605 3.192 43.6585 2.79 44.2945 2.502C44.9425 2.214 45.6745 2.07 46.4905 2.07Z" fill="#0E0E0E"/>
<path d="M56.7967 4.986C58.2007 4.986 59.2928 5.436 60.0728 6.336C60.8647 7.224 61.2607 8.448 61.2607 10.008C61.2607 11.004 61.0807 11.886 60.7207 12.654C60.3607 13.41 59.8447 13.998 59.1727 14.418C58.5007 14.838 57.7028 15.048 56.7788 15.048C55.3748 15.048 54.2767 14.604 53.4847 13.716C52.6927 12.816 52.2967 11.58 52.2967 10.008C52.2967 9.012 52.4767 8.136 52.8368 7.38C53.1968 6.624 53.7128 6.036 54.3848 5.616C55.0688 5.196 55.8727 4.986 56.7967 4.986ZM56.7967 6.732C55.4167 6.732 54.7267 7.824 54.7267 10.008C54.7267 11.136 54.8948 11.97 55.2308 12.51C55.5788 13.038 56.0948 13.302 56.7788 13.302C57.4628 13.302 57.9728 13.032 58.3088 12.492C58.6568 11.952 58.8307 11.124 58.8307 10.008C58.8307 8.892 58.6568 8.07 58.3088 7.542C57.9728 7.002 57.4687 6.732 56.7967 6.732Z" fill="#0E0E0E"/>
<path d="M71.0345 14.778H69.0365L68.9105 13.446C68.5625 13.986 68.1485 14.388 67.6685 14.652C67.2005 14.916 66.6425 15.048 65.9945 15.048C65.1425 15.048 64.4825 14.79 64.0145 14.274C63.5585 13.746 63.3305 13.02 63.3305 12.096V5.256H65.6345V11.808C65.6345 12.348 65.7245 12.732 65.9045 12.96C66.0965 13.188 66.3965 13.302 66.8045 13.302C67.5365 13.302 68.1785 12.852 68.7305 11.952V5.256H71.0345V14.778Z" fill="#0E0E0E"/>
<path d="M80.0011 5.256V6.912L75.3931 12.978H80.0911L79.8571 14.778H72.7471V13.122L77.3731 7.056H73.1431V5.256H80.0011Z" fill="#0E0E0E"/>
<path d="M88.6694 12.258C88.6694 12.63 88.7234 12.906 88.8314 13.086C88.9514 13.254 89.1374 13.386 89.3894 13.482L88.9034 15.012C88.3634 14.964 87.9194 14.832 87.5714 14.616C87.2354 14.4 86.9774 14.07 86.7974 13.626C86.4734 14.106 86.0654 14.466 85.5734 14.706C85.0934 14.934 84.5534 15.048 83.9534 15.048C83.0054 15.048 82.2554 14.778 81.7034 14.238C81.1514 13.698 80.8754 12.99 80.8754 12.114C80.8754 11.082 81.2474 10.296 81.9914 9.756C82.7474 9.204 83.8214 8.928 85.2134 8.928H86.4014V8.388C86.4014 7.776 86.2574 7.35 85.9694 7.11C85.6934 6.858 85.2434 6.732 84.6194 6.732C83.9234 6.732 83.0834 6.9 82.0994 7.236L81.5594 5.67C82.7474 5.214 83.8994 4.986 85.0154 4.986C87.4514 4.986 88.6694 6.078 88.6694 8.262V12.258ZM84.5654 13.374C85.3454 13.374 85.9574 12.984 86.4014 12.204V10.278H85.4474C83.9594 10.278 83.2154 10.83 83.2154 11.934C83.2154 12.39 83.3294 12.744 83.5574 12.996C83.7854 13.248 84.1214 13.374 84.5654 13.374Z" fill="#0E0E0E"/>
</svg>
